<svg xmlns="http://www.w3.org/2000/svg" width="1400" height="930" viewBox="0 0 1400 930" role="img" aria-labelledby="title desc">
<title id="title">ESP32-C3 Super Mini wiring diagram</title>
<desc id="desc">Wiring diagram for ESP32-C3 Super Mini, PN532, TM1637, status LEDs, and activation switch.</desc>
<rect x="0" y="0" width="1400" height="930" fill="#ffffff" />
<text x="700" y="42" text-anchor="middle" font-family="Arial, sans-serif" font-size="27" font-weight="600" fill="#111827">ESP32-C3 Super Mini wiring</text>
<text x="700" y="74" text-anchor="middle" font-family="Arial, sans-serif" font-size="15" font-weight="400" fill="#4b5563">PN532 I2C, TM1637 display, active-high LEDs, switch to GND</text>
<line x1="70" y1="125" x2="1330" y2="125" stroke="#c2410c" stroke-width="4" stroke-linecap="round" />
<text x="78" y="109" text-anchor="start" font-family="Arial, sans-serif" font-size="18" font-weight="600" fill="#c2410c">3.3V</text>
<line x1="70" y1="860" x2="1330" y2="860" stroke="#334155" stroke-width="4" stroke-linecap="round" />
<text x="78" y="892" text-anchor="start" font-family="Arial, sans-serif" font-size="18" font-weight="600" fill="#334155">GND</text>
<rect x="95" y="190" width="325" height="630" rx="12" fill="#f8fafc" stroke="#111827" stroke-width="3" />
<text x="257" y="232" text-anchor="middle" font-family="Arial, sans-serif" font-size="25" font-weight="500" fill="#111827">ESP32-C3</text>
<text x="257" y="266" text-anchor="middle" font-family="Arial, sans-serif" font-size="15" font-weight="400" fill="#4b5563">Super Mini</text>
<rect x="940" y="185" width="315" height="150" rx="12" fill="#f8fafc" stroke="#111827" stroke-width="3" />
<text x="1097" y="227" text-anchor="middle" font-family="Arial, sans-serif" font-size="25" font-weight="500" fill="#111827">PN532</text>
<text x="1097" y="261" text-anchor="middle" font-family="Arial, sans-serif" font-size="15" font-weight="400" fill="#4b5563">NFC reader, I2C mode</text>
<rect x="940" y="385" width="315" height="150" rx="12" fill="#f8fafc" stroke="#111827" stroke-width="3" />
<text x="1097" y="427" text-anchor="middle" font-family="Arial, sans-serif" font-size="25" font-weight="500" fill="#111827">TM1637</text>
<text x="1097" y="461" text-anchor="middle" font-family="Arial, sans-serif" font-size="15" font-weight="400" fill="#4b5563">4-digit display + colon</text>
<text x="113" y="260" text-anchor="start" font-family="Arial, sans-serif" font-size="14" font-weight="400" fill="#111827">3V3</text>
<text x="113" y="655" text-anchor="start" font-family="Arial, sans-serif" font-size="14" font-weight="400" fill="#111827">GND</text>
<text x="402" y="255" text-anchor="end" font-family="Arial, sans-serif" font-size="14" font-weight="400" fill="#111827">GPIO3 / SDA</text>
<text x="402" y="305" text-anchor="end" font-family="Arial, sans-serif" font-size="14" font-weight="400" fill="#111827">GPIO4 / SCL</text>
<text x="402" y="435" text-anchor="end" font-family="Arial, sans-serif" font-size="14" font-weight="400" fill="#111827">GPIO5 / CLK</text>
<text x="402" y="485" text-anchor="end" font-family="Arial, sans-serif" font-size="14" font-weight="400" fill="#111827">GPIO6 / DIO</text>
<text x="402" y="625" text-anchor="end" font-family="Arial, sans-serif" font-size="14" font-weight="400" fill="#111827">GPIO0 / RED</text>
<text x="402" y="685" text-anchor="end" font-family="Arial, sans-serif" font-size="14" font-weight="400" fill="#111827">GPIO1 / GREEN</text>
<text x="402" y="775" text-anchor="end" font-family="Arial, sans-serif" font-size="14" font-weight="400" fill="#111827">GPIO10 / SWITCH</text>
<text x="958" y="255" text-anchor="start" font-family="Arial, sans-serif" font-size="14" font-weight="400" fill="#111827">SDA</text>
<text x="958" y="305" text-anchor="start" font-family="Arial, sans-serif" font-size="14" font-weight="400" fill="#111827">SCL</text>
<text x="1237" y="245" text-anchor="end" font-family="Arial, sans-serif" font-size="14" font-weight="400" fill="#111827">VCC</text>
<text x="1237" y="305" text-anchor="end" font-family="Arial, sans-serif" font-size="14" font-weight="400" fill="#111827">GND</text>
<text x="958" y="435" text-anchor="start" font-family="Arial, sans-serif" font-size="14" font-weight="400" fill="#111827">CLK</text>
<text x="958" y="485" text-anchor="start" font-family="Arial, sans-serif" font-size="14" font-weight="400" fill="#111827">DIO</text>
<text x="1237" y="435" text-anchor="end" font-family="Arial, sans-serif" font-size="14" font-weight="400" fill="#111827">VCC</text>
<text x="1237" y="495" text-anchor="end" font-family="Arial, sans-serif" font-size="14" font-weight="400" fill="#111827">GND</text>
<circle cx="95" cy="255" r="4" fill="#c2410c" />
<circle cx="95" cy="650" r="4" fill="#334155" />
<circle cx="420" cy="250" r="4" fill="#0f766e" />
<circle cx="420" cy="300" r="4" fill="#0f766e" />
<circle cx="420" cy="430" r="4" fill="#0e7490" />
<circle cx="420" cy="480" r="4" fill="#0e7490" />
<circle cx="420" cy="620" r="4" fill="#7c3aed" />
<circle cx="420" cy="680" r="4" fill="#7c3aed" />
<circle cx="420" cy="785" r="4" fill="#2563eb" />
<circle cx="940" cy="250" r="4" fill="#0f766e" />
<circle cx="940" cy="300" r="4" fill="#0f766e" />
<circle cx="1255" cy="240" r="4" fill="#c2410c" />
<circle cx="1255" cy="300" r="4" fill="#334155" />
<circle cx="940" cy="430" r="4" fill="#0e7490" />
<circle cx="940" cy="480" r="4" fill="#0e7490" />
<circle cx="1255" cy="430" r="4" fill="#c2410c" />
<circle cx="1255" cy="490" r="4" fill="#334155" />
<line x1="95" y1="255" x2="70" y2="255" stroke="#c2410c" stroke-width="3" stroke-linecap="round" />
<line x1="70" y1="255" x2="70" y2="125" stroke="#c2410c" stroke-width="3" stroke-linecap="round" />
<line x1="95" y1="650" x2="70" y2="650" stroke="#334155" stroke-width="3" stroke-linecap="round" />
<line x1="70" y1="650" x2="70" y2="860" stroke="#334155" stroke-width="3" stroke-linecap="round" />
<line x1="1305" y1="125" x2="1305" y2="430" stroke="#c2410c" stroke-width="4" stroke-linecap="round" />
<line x1="1330" y1="860" x2="1330" y2="300" stroke="#334155" stroke-width="4" stroke-linecap="round" />
<line x1="1255" y1="240" x2="1305" y2="240" stroke="#c2410c" stroke-width="3" stroke-linecap="round" />
<line x1="1255" y1="430" x2="1305" y2="430" stroke="#c2410c" stroke-width="3" stroke-linecap="round" />
<line x1="1255" y1="300" x2="1330" y2="300" stroke="#334155" stroke-width="3" stroke-linecap="round" />
<line x1="1255" y1="490" x2="1330" y2="490" stroke="#334155" stroke-width="3" stroke-linecap="round" />
<line x1="420" y1="250" x2="940" y2="250" stroke="#0f766e" stroke-width="3" stroke-linecap="round" />
<line x1="420" y1="300" x2="940" y2="300" stroke="#0f766e" stroke-width="3" stroke-linecap="round" />
<line x1="610" y1="125" x2="610" y2="143" stroke="#c2410c" stroke-width="3" stroke-linecap="round" />
<polyline points="610,143 600,156 620,169 600,182 620,195 600,208 610,221" fill="none" stroke="#111827" stroke-width="3" stroke-linecap="round" stroke-linejoin="round" />
<line x1="610" y1="221" x2="610" y2="250" stroke="#0f766e" stroke-width="3" stroke-linecap="round" />
<line x1="660" y1="125" x2="660" y2="143" stroke="#c2410c" stroke-width="3" stroke-linecap="round" />
<polyline points="660,143 650,156 670,169 650,182 670,195 650,208 660,221" fill="none" stroke="#111827" stroke-width="3" stroke-linecap="round" stroke-linejoin="round" />
<line x1="660" y1="221" x2="660" y2="300" stroke="#0f766e" stroke-width="3" stroke-linecap="round" />
<circle cx="610" cy="250" r="5" fill="#0f766e" />
<circle cx="660" cy="300" r="5" fill="#0f766e" />
<text x="700" y="170" text-anchor="start" font-family="Arial, sans-serif" font-size="14" font-weight="400" fill="#111827">I2C pull-ups</text>
<text x="700" y="187" text-anchor="start" font-family="Arial, sans-serif" font-size="14" font-weight="400" fill="#111827">4.7k to 3.3V</text>
<line x1="420" y1="430" x2="940" y2="430" stroke="#0e7490" stroke-width="3" stroke-linecap="round" />
<line x1="420" y1="480" x2="940" y2="480" stroke="#0e7490" stroke-width="3" stroke-linecap="round" />
<text x="670" y="560" text-anchor="middle" font-family="Arial, sans-serif" font-size="18" font-weight="600" fill="#111827">Status LEDs</text>
<text x="670" y="585" text-anchor="middle" font-family="Arial, sans-serif" font-size="13" font-weight="400" fill="#4b5563">GPIO -&gt; resistor -&gt; LED -&gt; GND</text>
<line x1="420" y1="620" x2="535" y2="620" stroke="#7c3aed" stroke-width="3" stroke-linecap="round" />
<line x1="535" y1="620" x2="549" y2="620" stroke="#7c3aed" stroke-width="3" stroke-linecap="round" />
<line x1="621" y1="620" x2="635" y2="620" stroke="#7c3aed" stroke-width="3" stroke-linecap="round" />
<polyline points="549,620 561,610 573,630 585,610 597,630 609,610 621,620" fill="none" stroke="#111827" stroke-width="3" stroke-linecap="round" stroke-linejoin="round" />
<line x1="635" y1="620" x2="675" y2="620" stroke="#7c3aed" stroke-width="3" stroke-linecap="round" />
<polygon points="675,600 675,640 713,620" fill="none" stroke="#111827" stroke-width="3" stroke-linejoin="round" />
<line x1="719" y1="597" x2="719" y2="643" stroke="#111827" stroke-width="3" stroke-linecap="round" />
<line x1="731" y1="597" x2="741" y2="587" stroke="#7c3aed" stroke-width="2" stroke-linecap="round" />
<line x1="739" y1="606" x2="749" y2="596" stroke="#7c3aed" stroke-width="2" stroke-linecap="round" />
<line x1="713" y1="620" x2="719" y2="620" stroke="#7c3aed" stroke-width="3" stroke-linecap="round" />
<line x1="719" y1="620" x2="1330" y2="620" stroke="#334155" stroke-width="3" stroke-linecap="round" />
<text x="770" y="606" text-anchor="start" font-family="Arial, sans-serif" font-size="13" font-weight="400" fill="#4b5563">red</text>
<line x1="420" y1="680" x2="535" y2="680" stroke="#7c3aed" stroke-width="3" stroke-linecap="round" />
<line x1="535" y1="680" x2="549" y2="680" stroke="#7c3aed" stroke-width="3" stroke-linecap="round" />
<line x1="621" y1="680" x2="635" y2="680" stroke="#7c3aed" stroke-width="3" stroke-linecap="round" />
<polyline points="549,680 561,670 573,690 585,670 597,690 609,670 621,680" fill="none" stroke="#111827" stroke-width="3" stroke-linecap="round" stroke-linejoin="round" />
<line x1="635" y1="680" x2="675" y2="680" stroke="#7c3aed" stroke-width="3" stroke-linecap="round" />
<polygon points="675,660 675,700 713,680" fill="none" stroke="#111827" stroke-width="3" stroke-linejoin="round" />
<line x1="719" y1="657" x2="719" y2="703" stroke="#111827" stroke-width="3" stroke-linecap="round" />
<line x1="731" y1="657" x2="741" y2="647" stroke="#7c3aed" stroke-width="2" stroke-linecap="round" />
<line x1="739" y1="666" x2="749" y2="656" stroke="#7c3aed" stroke-width="2" stroke-linecap="round" />
<line x1="713" y1="680" x2="719" y2="680" stroke="#7c3aed" stroke-width="3" stroke-linecap="round" />
<line x1="719" y1="680" x2="1330" y2="680" stroke="#334155" stroke-width="3" stroke-linecap="round" />
<text x="770" y="666" text-anchor="start" font-family="Arial, sans-serif" font-size="13" font-weight="400" fill="#4b5563">green</text>
<line x1="805" y1="125" x2="805" y2="242" stroke="#c2410c" stroke-width="3" stroke-linecap="round" />
<path d="M 805 242 Q 819 250 805 258" fill="none" stroke="#c2410c" stroke-width="3" stroke-linecap="round" />
<line x1="805" y1="258" x2="805" y2="292" stroke="#c2410c" stroke-width="3" stroke-linecap="round" />
<path d="M 805 292 Q 819 300 805 308" fill="none" stroke="#c2410c" stroke-width="3" stroke-linecap="round" />
<line x1="805" y1="308" x2="805" y2="422" stroke="#c2410c" stroke-width="3" stroke-linecap="round" />
<path d="M 805 422 Q 819 430 805 438" fill="none" stroke="#c2410c" stroke-width="3" stroke-linecap="round" />
<line x1="805" y1="438" x2="805" y2="472" stroke="#c2410c" stroke-width="3" stroke-linecap="round" />
<path d="M 805 472 Q 819 480 805 488" fill="none" stroke="#c2410c" stroke-width="3" stroke-linecap="round" />
<line x1="805" y1="488" x2="805" y2="612" stroke="#c2410c" stroke-width="3" stroke-linecap="round" />
<path d="M 805 612 Q 819 620 805 628" fill="none" stroke="#c2410c" stroke-width="3" stroke-linecap="round" />
<line x1="805" y1="628" x2="805" y2="672" stroke="#c2410c" stroke-width="3" stroke-linecap="round" />
<path d="M 805 672 Q 819 680 805 688" fill="none" stroke="#c2410c" stroke-width="3" stroke-linecap="round" />
<line x1="805" y1="688" x2="805" y2="745" stroke="#c2410c" stroke-width="3" stroke-linecap="round" />
<line x1="805" y1="745" x2="819" y2="745" stroke="#c2410c" stroke-width="3" stroke-linecap="round" />
<line x1="891" y1="745" x2="905" y2="745" stroke="#c2410c" stroke-width="3" stroke-linecap="round" />
<polyline points="819,745 831,735 843,755 855,735 867,755 879,735 891,745" fill="none" stroke="#111827" stroke-width="3" stroke-linecap="round" stroke-linejoin="round" />
<line x1="905" y1="745" x2="940" y2="745" stroke="#2563eb" stroke-width="3" stroke-linecap="round" />
<line x1="940" y1="745" x2="940" y2="785" stroke="#2563eb" stroke-width="3" stroke-linecap="round" />
<line x1="420" y1="785" x2="940" y2="785" stroke="#2563eb" stroke-width="3" stroke-linecap="round" />
<text x="870" y="725" text-anchor="middle" font-family="Arial, sans-serif" font-size="12" font-weight="400" fill="#2563eb">external pull-up 10k</text>
<circle cx="940" cy="785" r="4" fill="#2563eb" />
<circle cx="1026" cy="785" r="4" fill="#334155" />
<line x1="952" y1="785" x2="974" y2="785" stroke="#2563eb" stroke-width="3" stroke-linecap="round" />
<line x1="998" y1="767" x2="978" y2="785" stroke="#111827" stroke-width="3" stroke-linecap="round" />
<line x1="1026" y1="785" x2="1026" y2="860" stroke="#334155" stroke-width="3" stroke-linecap="round" />
<text x="983" y="819" text-anchor="middle" font-family="Arial, sans-serif" font-size="14" font-weight="400" fill="#4b5563">toggle switch / latching button</text>
<text x="1042" y="790" text-anchor="start" font-family="Arial, sans-serif" font-size="13" font-weight="400" fill="#334155">to GND</text>
<line x1="1097" y1="335" x2="1097" y2="359" stroke="#9ca3af" stroke-width="2" stroke-linecap="round" />
<text x="1115" y="363" text-anchor="start" font-family="Arial, sans-serif" font-size="12" font-weight="400" fill="#4b5563">reset pin not connected</text>
</svg>
